<svg xmlns="http://www.w3.org/2000/svg" width="480" height="440" viewBox="0 0 480 440" font-family="ui-monospace, SFMono-Regular, Menlo, Consolas, monospace"><defs><linearGradient id="ibg" x1="0" y1="0" x2="0" y2="1"><stop offset="0" stop-color="#111722"/><stop offset="1" stop-color="#0d1117"/></linearGradient></defs><style>@keyframes rise{from{opacity:0;transform:translateY(5px)}to{opacity:1;transform:translateY(0)}}</style><rect width="480" height="440" rx="12" fill="url(#ibg)"/><rect x="0.5" y="0.5" width="479" height="439" rx="12" fill="none" stroke="#30363d"/><line x1="0" y1="30" x2="480" y2="30" stroke="#30363d"/><circle cx="20" cy="15.0" r="5" fill="#ff5f56"/><circle cx="36" cy="15.0" r="5" fill="#ffbd2e"/><circle cx="52" cy="15.0" r="5" fill="#27c93f"/><text x="240.0" y="19.0" fill="#7d8590" font-size="12" text-anchor="middle">Mjangid2004@github: ~$ neofetch</text><g><text x="20" y="60.0" font-size="14" font-weight="700"><tspan fill="#3fb950">Mjangid2004</tspan><tspan fill="#7d8590">@</tspan><tspan fill="#22d3ee">github</tspan></text><line x1="172" y1="56.0" x2="460" y2="56.0" stroke="#30363d" stroke-opacity="0.8"/></g><g><text x="20" y="80.5" fill="#ffa657" font-size="12.5" font-weight="700">Name</text><text x="112" y="80.5" fill="#c9d1d9" font-size="12.5">Mohan Sharma</text></g><g><text x="20" y="101.0" fill="#ffa657" font-size="12.5" font-weight="700">Role</text><text x="112" y="101.0" fill="#c9d1d9" font-size="12.5">Data Science Intern @ Hackveda Solutions</text></g><g><text x="20" y="121.5" fill="#ffa657" font-size="12.5" font-weight="700">Edu</text><text x="112" y="121.5" fill="#c9d1d9" font-size="12.5">B.Tech CSE (Data Science), CMR Univ - CGPA 9.0</text></g><g><text x="20" y="152.2" fill="#58a6ff" font-size="12.5" font-weight="700">&#8212; Stack</text><line x1="72" y1="148.2" x2="460" y2="148.2" stroke="#30363d" stroke-opacity="0.8"/></g><g><text x="20" y="172.8" fill="#ffa657" font-size="12.5" font-weight="700">Languages</text><text x="112" y="172.8" fill="#c9d1d9" font-size="12.5">Python, SQL, C/C++ (basics), HTML/CSS</text></g><g><text x="20" y="193.2" fill="#ffa657" font-size="12.5" font-weight="700">ML / AI</text><text x="112" y="193.2" fill="#c9d1d9" font-size="12.5">Scikit-learn, Pandas, NumPy, Matplotlib</text></g><g><text x="20" y="213.8" fill="#ffa657" font-size="12.5" font-weight="700">Backend</text><text x="112" y="213.8" fill="#c9d1d9" font-size="12.5">Django, REST APIs, Socket Programming</text></g><g><text x="20" y="234.2" fill="#ffa657" font-size="12.5" font-weight="700">Tools</text><text x="112" y="234.2" fill="#c9d1d9" font-size="12.5">Power BI, Git, USDA API, YouTube API</text></g><g><text x="20" y="265.0" fill="#58a6ff" font-size="12.5" font-weight="700">&#8212; Projects</text><line x1="96" y1="261.0" x2="460" y2="261.0" stroke="#30363d" stroke-opacity="0.8"/></g><g><circle cx="23" cy="281.5" r="2.5" fill="#3fb950"/><text x="34" y="285.5" fill="#c9d1d9" font-size="12.5">Foodie Calorie Finder — Django + USDA API nutrition tracker</text></g><g><circle cx="23" cy="302.0" r="2.5" fill="#3fb950"/><text x="34" y="306.0" fill="#c9d1d9" font-size="12.5">Water Footprint Estimator — Linear Regression + Matplotlib</text></g><g><circle cx="23" cy="322.5" r="2.5" fill="#3fb950"/><text x="34" y="326.5" fill="#c9d1d9" font-size="12.5">Desi Beats — ad-free music streaming via YouTube API</text></g><g><circle cx="23" cy="343.0" r="2.5" fill="#3fb950"/><text x="34" y="347.0" fill="#c9d1d9" font-size="12.5">Qrio — anonymous academic Q&amp;A platform</text></g><g><text x="20" y="377.8" fill="#58a6ff" font-size="12.5" font-weight="700">&#8212; Highlights</text><line x1="112" y1="373.8" x2="460" y2="373.8" stroke="#30363d" stroke-opacity="0.8"/></g><g><circle cx="23" cy="394.2" r="2.5" fill="#3fb950"/><text x="34" y="398.2" fill="#c9d1d9" font-size="12.5">NPTEL: Artificial Intelligence &amp; Mobile VR certified</text></g><g><circle cx="23" cy="414.8" r="2.5" fill="#3fb950"/><text x="34" y="418.8" fill="#c9d1d9" font-size="12.5">District-level Table Tennis player — 2x Silver medalist</text></g></svg>